<?xml version="1.0" encoding="UTF-8"?>
<svg xmlns="http://www.w3.org/2000/svg" width="980" height="520" viewBox="0 0 980 520">
  <rect width="980" height="520" fill="#ffffff" />
  <text x="85" y="34" font-size="24" font-family="Segoe UI, Arial, sans-serif" font-weight="600" fill="#1a1f24">Execution time for random 1024x1024 matrices</text>
  <text x="85" y="58" font-size="14" font-family="Segoe UI, Arial, sans-serif" fill="#59636e">Average, minimum and maximum time for 1 to 12 MPI processes</text>
  <line x1="85" y1="430.00" x2="940" y2="430.00" stroke="#d9e0e7" stroke-width="1" />
  <text x="73" y="435.00" text-anchor="end" font-size="12" fill="#45515c">0.0</text>
  <line x1="85" y1="396.67" x2="940" y2="396.67" stroke="#d9e0e7" stroke-width="1" />
  <text x="73" y="401.67" text-anchor="end" font-size="12" fill="#45515c">0.2</text>
  <line x1="85" y1="363.33" x2="940" y2="363.33" stroke="#d9e0e7" stroke-width="1" />
  <text x="73" y="368.33" text-anchor="end" font-size="12" fill="#45515c">0.4</text>
  <line x1="85" y1="330.00" x2="940" y2="330.00" stroke="#d9e0e7" stroke-width="1" />
  <text x="73" y="335.00" text-anchor="end" font-size="12" fill="#45515c">0.6</text>
  <line x1="85" y1="296.67" x2="940" y2="296.67" stroke="#d9e0e7" stroke-width="1" />
  <text x="73" y="301.67" text-anchor="end" font-size="12" fill="#45515c">0.8</text>
  <line x1="85" y1="263.33" x2="940" y2="263.33" stroke="#d9e0e7" stroke-width="1" />
  <text x="73" y="268.33" text-anchor="end" font-size="12" fill="#45515c">1.0</text>
  <line x1="85" y1="230.00" x2="940" y2="230.00" stroke="#d9e0e7" stroke-width="1" />
  <text x="73" y="235.00" text-anchor="end" font-size="12" fill="#45515c">1.2</text>
  <line x1="85" y1="196.67" x2="940" y2="196.67" stroke="#d9e0e7" stroke-width="1" />
  <text x="73" y="201.67" text-anchor="end" font-size="12" fill="#45515c">1.4</text>
  <line x1="85" y1="163.33" x2="940" y2="163.33" stroke="#d9e0e7" stroke-width="1" />
  <text x="73" y="168.33" text-anchor="end" font-size="12" fill="#45515c">1.6</text>
  <line x1="85" y1="130.00" x2="940" y2="130.00" stroke="#d9e0e7" stroke-width="1" />
  <text x="73" y="135.00" text-anchor="end" font-size="12" fill="#45515c">1.8</text>
  <line x1="85" y1="96.67" x2="940" y2="96.67" stroke="#d9e0e7" stroke-width="1" />
  <text x="73" y="101.67" text-anchor="end" font-size="12" fill="#45515c">2.0</text>
  <line x1="85" y1="80" x2="85" y2="430" stroke="#1a1f24" stroke-width="1.5" />
  <line x1="85" y1="430" x2="940" y2="430" stroke="#1a1f24" stroke-width="1.5" />
  <line x1="85.00" y1="430" x2="85.00" y2="436" stroke="#1a1f24" stroke-width="1.5" />
<text x="85.00" y="454" text-anchor="middle" font-size="11" fill="#45515c">1</text>
<line x1="162.73" y1="430" x2="162.73" y2="436" stroke="#1a1f24" stroke-width="1.5" />
<text x="162.73" y="454" text-anchor="middle" font-size="11" fill="#45515c">2</text>
<line x1="240.45" y1="430" x2="240.45" y2="436" stroke="#1a1f24" stroke-width="1.5" />
<text x="240.45" y="454" text-anchor="middle" font-size="11" fill="#45515c">3</text>
<line x1="318.18" y1="430" x2="318.18" y2="436" stroke="#1a1f24" stroke-width="1.5" />
<text x="318.18" y="454" text-anchor="middle" font-size="11" fill="#45515c">4</text>
<line x1="395.91" y1="430" x2="395.91" y2="436" stroke="#1a1f24" stroke-width="1.5" />
<text x="395.91" y="454" text-anchor="middle" font-size="11" fill="#45515c">5</text>
<line x1="473.64" y1="430" x2="473.64" y2="436" stroke="#1a1f24" stroke-width="1.5" />
<text x="473.64" y="454" text-anchor="middle" font-size="11" fill="#45515c">6</text>
<line x1="551.36" y1="430" x2="551.36" y2="436" stroke="#1a1f24" stroke-width="1.5" />
<text x="551.36" y="454" text-anchor="middle" font-size="11" fill="#45515c">7</text>
<line x1="629.09" y1="430" x2="629.09" y2="436" stroke="#1a1f24" stroke-width="1.5" />
<text x="629.09" y="454" text-anchor="middle" font-size="11" fill="#45515c">8</text>
<line x1="706.82" y1="430" x2="706.82" y2="436" stroke="#1a1f24" stroke-width="1.5" />
<text x="706.82" y="454" text-anchor="middle" font-size="11" fill="#45515c">9</text>
<line x1="784.55" y1="430" x2="784.55" y2="436" stroke="#1a1f24" stroke-width="1.5" />
<text x="784.55" y="454" text-anchor="middle" font-size="11" fill="#45515c">10</text>
<line x1="862.27" y1="430" x2="862.27" y2="436" stroke="#1a1f24" stroke-width="1.5" />
<text x="862.27" y="454" text-anchor="middle" font-size="11" fill="#45515c">11</text>
<line x1="940.00" y1="430" x2="940.00" y2="436" stroke="#1a1f24" stroke-width="1.5" />
<text x="940.00" y="454" text-anchor="middle" font-size="11" fill="#45515c">12</text>
  <polyline points="85.00,89.29 162.73,238.11 240.45,279.96 318.18,299.41 395.91,308.99 473.64,312.16 551.36,332.85 629.09,326.12 706.82,335.68 784.55,335.52 862.27,321.67 940.00,294.14" fill="none" stroke="#8ea0b5" stroke-width="2" stroke-dasharray="6 5" />
  <polyline points="85.00,130.97 162.73,252.96 240.45,295.27 318.18,310.10 395.91,319.96 473.64,333.73 551.36,336.70 629.09,330.10 706.82,344.01 784.55,343.02 862.27,344.46 940.00,335.98" fill="none" stroke="#63b3ed" stroke-width="2" stroke-dasharray="6 5" />
  <polyline points="85.00,112.41 162.73,246.08 240.45,287.01 318.18,303.18 395.91,313.85 473.64,323.49 551.36,335.37 629.09,327.67 706.82,339.83 784.55,339.85 862.27,336.81 940.00,309.12" fill="none" stroke="#ef6c00" stroke-width="3.5" />
  <circle cx="85.00" cy="112.41" r="4.8" fill="#ef6c00" />
<text x="85.00" y="102.41" text-anchor="middle" font-size="10" fill="#a24700">1.906</text>
<circle cx="162.73" cy="246.08" r="4.8" fill="#ef6c00" />
<text x="162.73" y="236.08" text-anchor="middle" font-size="10" fill="#a24700">1.104</text>
<circle cx="240.45" cy="287.01" r="4.8" fill="#ef6c00" />
<text x="240.45" y="277.01" text-anchor="middle" font-size="10" fill="#a24700">0.858</text>
<circle cx="318.18" cy="303.18" r="4.8" fill="#ef6c00" />
<text x="318.18" y="293.18" text-anchor="middle" font-size="10" fill="#a24700">0.761</text>
<circle cx="395.91" cy="313.85" r="4.8" fill="#ef6c00" />
<text x="395.91" y="303.85" text-anchor="middle" font-size="10" fill="#a24700">0.697</text>
<circle cx="473.64" cy="323.49" r="4.8" fill="#ef6c00" />
<text x="473.64" y="313.49" text-anchor="middle" font-size="10" fill="#a24700">0.639</text>
<circle cx="551.36" cy="335.37" r="4.8" fill="#ef6c00" />
<text x="551.36" y="325.37" text-anchor="middle" font-size="10" fill="#a24700">0.568</text>
<circle cx="629.09" cy="327.67" r="4.8" fill="#ef6c00" />
<text x="629.09" y="317.67" text-anchor="middle" font-size="10" fill="#a24700">0.614</text>
<circle cx="706.82" cy="339.83" r="4.8" fill="#ef6c00" />
<text x="706.82" y="329.83" text-anchor="middle" font-size="10" fill="#a24700">0.541</text>
<circle cx="784.55" cy="339.85" r="4.8" fill="#ef6c00" />
<text x="784.55" y="329.85" text-anchor="middle" font-size="10" fill="#a24700">0.541</text>
<circle cx="862.27" cy="336.81" r="4.8" fill="#ef6c00" />
<text x="862.27" y="326.81" text-anchor="middle" font-size="10" fill="#a24700">0.559</text>
<circle cx="940.00" cy="309.12" r="4.8" fill="#ef6c00" />
<text x="940.00" y="299.12" text-anchor="middle" font-size="10" fill="#a24700">0.725</text>
  <text x="512.5" y="492" text-anchor="middle" font-size="15" font-family="Segoe UI, Arial, sans-serif" fill="#1a1f24">Number of MPI processes</text>
  <g transform="translate(28, 255) rotate(-90)">
    <text text-anchor="middle" font-size="15" font-family="Segoe UI, Arial, sans-serif" fill="#1a1f24">Time, seconds</text>
  </g>
  <g transform="translate(720, 28)">
    <line x1="0" y1="0" x2="34" y2="0" stroke="#ef6c00" stroke-width="3.5" />
    <text x="44" y="5" font-size="13" font-family="Segoe UI, Arial, sans-serif" fill="#1a1f24">Average</text>
    <line x1="0" y1="24" x2="34" y2="24" stroke="#63b3ed" stroke-width="2" stroke-dasharray="6 5" />
    <text x="44" y="29" font-size="13" font-family="Segoe UI, Arial, sans-serif" fill="#1a1f24">Minimum</text>
    <line x1="0" y1="48" x2="34" y2="48" stroke="#8ea0b5" stroke-width="2" stroke-dasharray="6 5" />
    <text x="44" y="53" font-size="13" font-family="Segoe UI, Arial, sans-serif" fill="#1a1f24">Maximum</text>
  </g>
</svg>